 http://www.imdb.com/title/tt0848228/

Plot: Nick Fury of S.H.I.E.L.D. brings together a team of super humans to form The Avengers to help save the Earth from Loki and his army.


Director: Joss Whedon
Writers: Zak Penn (story), Joss Whedon (story)
Stars:Robert Downey Jr., Chris Evans and Scarlett Johansson
Genres:Action | Adventure | Sci-Fi
Country:USA
Language:English

Thanks : bRaVo



Format : AVI
Format/Info : Audio Video Interleave
Format profile : OpenDML
File size : 1.34 GiB
Duration : 2h 13mn
Overall bit rate : 1 437 Kbps
Writing application : Lavf54.3.100

Video
ID : 0
Format : MPEG-4 Visual
Format profile : Simple@L3
Format settings, BVOP : No
Format settings, QPel : No
Format settings, GMC : No warppoints
Format settings, Matrix : Default (H.263)
Codec ID : XVID
Codec ID/Hint : XviD
Duration : 2h 12mn
Bit rate : 1 300 Kbps
Width : 680 pixels
Height : 370 pixels
Display aspect ratio : 16:9
Frame rate : 29.970 fps
Color space : YUV
Chroma subsampling : 4:2:0
Bit depth : 8 bits
Scan type : Progressive
Compression mode : Lossy
Bits/(Pixel*Frame) : 0.172
Stream size : 1.21 GiB (90%)
Writing library : XviD 64

Audio
ID : 1
Format : AC-3
Format/Info : Audio Coding 3
Mode extension : CM (complete main)
Codec ID : 2000
Duration : 2h 13mn
Bit rate mode : Constant
Bit rate : 128 Kbps
Channel(s) : 2 channels
Channel positions : Front: L R
Sampling rate : 48.0 KHz
Bit depth : 16 bits
Compression mode : Lossy
Stream size : 122 MiB (9%)
Alignment : Aligned on interleaves
Interleave, duration : 32 ms (0.96 video frame)


SCREENS 
  
http://imgcrave.com/u/Rt6NY.png  
http://imgcrave.com/u/9Yqy.png  
http://imgcrave.com/u/tGpnc.png  
http://imgcrave.com/u/gb5Eh.png





            ----------------------------------------------------------

                      !!! ENJOY & SEED 30mb UPLOAD SPEED !!!

            ----------------------------------------------------------
		
